# Blender v3.1.2 OBJ File: 'untitled.blend'
# www.blender.org
mtllib toge2.mtl
o Cube
v -0.146328 -0.024787 0.081125
v 0.003389 -0.131818 0.075278
v -0.129887 -0.005751 -0.102854
v -0.019149 -0.141822 -0.073414
v -0.004770 0.120320 0.085358
v 0.129754 0.008725 0.089529
v 0.011033 0.120572 -0.067454
v 0.143315 0.015495 -0.087327
v -0.106078 -0.103329 0.137579
v 0.106078 0.103329 -0.137579
v -0.106078 -0.103329 -0.137579
v 0.106078 0.103329 0.137579
v 0.092106 -0.094557 0.137579
v -0.092106 0.094557 -0.137579
v 0.092106 -0.094557 -0.137579
v -0.092106 0.094557 0.137579
v 0.000000 0.000000 0.359818
v 0.000000 0.000000 -0.374350
v 0.198184 0.008772 0.000000
v -0.198184 -0.008772 0.000000
v 0.013972 0.197886 0.000000
v -0.013972 -0.197886 0.000000
v -0.264557 -0.257700 0.000000
v 0.279769 0.272518 0.000000
v 0.231661 -0.237824 0.000000
v -0.241086 0.247501 0.000000
vt 0.875000 0.625000
vt 0.750000 0.750000
vt 0.750000 0.625000
vt 0.625000 0.875000
vt 0.500000 1.000000
vt 0.500000 0.875000
vt 0.625000 0.125000
vt 0.500000 0.250000
vt 0.500000 0.125000
vt 0.375000 0.625000
vt 0.250000 0.750000
vt 0.250000 0.625000
vt 0.625000 0.625000
vt 0.500000 0.750000
vt 0.500000 0.625000
vt 0.625000 0.375000
vt 0.500000 0.500000
vt 0.500000 0.375000
vt 0.375000 0.375000
vt 0.375000 0.500000
vt 0.375000 0.750000
vt 0.375000 0.125000
vt 0.375000 0.250000
vt 0.375000 0.875000
vt 0.375000 1.000000
vt 0.125000 0.625000
vt 0.125000 0.750000
vt 0.625000 0.750000
vt 0.750000 0.500000
vt 0.625000 0.500000
vt 0.250000 0.500000
vt 0.125000 0.500000
vt 0.500000 0.000000
vt 0.375000 0.000000
vt 0.875000 0.750000
vt 0.625000 1.000000
vt 0.625000 0.250000
vt 0.625000 0.000000
vt 0.875000 0.500000
vn 0.1430 0.7353 -0.6625
vn -0.0408 0.9223 -0.3842
vn -0.2067 0.7362 0.6444
vn -0.1214 -0.7465 -0.6542
vn -0.7457 0.1988 -0.6359
vn -0.9119 0.0644 0.4053
vn 0.0390 -0.8811 0.4714
vn 0.1849 -0.7747 -0.6047
vn 0.7898 -0.1089 0.6036
vn 0.7555 -0.0533 -0.6530
vn 0.0369 -0.8341 -0.5504
vn 0.8439 -0.0596 0.5331
vn -0.0404 0.9133 0.4053
vn 0.8329 -0.1436 -0.5344
vn -0.9209 0.0650 -0.3842
vn -0.8284 0.1228 -0.5465
vn -0.8265 0.1149 0.5510
vn 0.7945 -0.0071 0.6072
vn 0.8473 0.0571 -0.5280
vn 0.1607 -0.7599 0.6299
vn -0.7172 0.1252 0.6856
vn -0.1367 -0.7522 0.6446
vn -0.2067 0.7362 -0.6444
vn 0.1430 0.7353 0.6625
vn 0.3328 0.6127 -0.7168
vn -0.0423 0.9554 -0.2922
vn -0.1861 0.7471 0.6381
vn -0.0119 -0.7951 -0.6064
vn -0.8330 -0.0063 -0.5533
vn -0.7754 0.0547 0.6290
vn 0.0404 -0.9133 0.4053
vn 0.1543 -0.7409 -0.6536
vn 0.7305 -0.2260 0.6444
vn 0.9209 -0.0650 -0.3842
vn 0.0408 -0.9223 -0.3842
vn 0.9119 -0.0644 0.4053
vn -0.0408 0.9214 0.3864
vn 0.7494 0.1017 -0.6542
vn -0.7482 0.0528 -0.6614
vn -0.7388 -0.1237 -0.6625
vn -0.7388 -0.1237 0.6625
vn 0.7494 0.1017 0.6542
vn 0.7305 -0.2260 -0.6444
vn 0.1792 -0.7507 0.6359
vn -0.8033 0.2142 0.5557
vn -0.1191 -0.7325 0.6703
vn -0.3943 0.6126 -0.6850
vn 0.2009 0.7026 0.6826
usemtl Material
s off
f 21/1/1 14/2/1 26/3/1
f 14/4/2 10/5/2 18/6/2
f 21/7/3 12/8/3 24/9/3
f 22/10/4 15/11/4 25/12/4
f 20/13/5 11/14/5 23/15/5
f 16/16/6 9/17/6 17/18/6
f 13/19/7 9/17/7 2/20/7
f 23/15/8 4/21/8 22/10/8
f 19/22/9 12/8/9 6/23/9
f 15/24/10 10/5/10 8/25/10
f 11/14/11 15/24/11 4/21/11
f 12/8/12 13/19/12 6/23/12
f 12/8/13 16/16/13 17/18/13
f 19/26/14 15/11/14 8/27/14
f 11/14/15 14/4/15 18/6/15
f 20/13/16 14/2/16 3/28/16
f 16/29/17 20/13/17 1/30/17
f 13/31/18 19/26/18 6/32/18
f 10/33/19 19/22/19 8/34/19
f 9/17/20 22/10/20 2/20/20
f 1/30/21 23/15/21 9/17/21
f 2/20/22 25/12/22 13/31/22
f 10/33/23 21/7/23 24/9/23
f 16/29/24 21/1/24 26/3/24
f 21/1/25 7/35/25 14/2/25
f 14/4/26 7/36/26 10/5/26
f 21/7/27 5/37/27 12/8/27
f 22/10/28 4/21/28 15/11/28
f 20/13/29 3/28/29 11/14/29
f 16/16/30 1/30/30 9/17/30
f 13/19/31 17/18/31 9/17/31
f 23/15/32 11/14/32 4/21/32
f 19/22/33 24/9/33 12/8/33
f 15/24/34 18/6/34 10/5/34
f 11/14/35 18/6/35 15/24/35
f 12/8/36 17/18/36 13/19/36
f 12/8/37 5/37/37 16/16/37
f 19/26/38 25/12/38 15/11/38
f 11/14/39 3/28/39 14/4/39
f 20/13/40 26/3/40 14/2/40
f 16/29/41 26/3/41 20/13/41
f 13/31/42 25/12/42 19/26/42
f 10/33/43 24/9/43 19/22/43
f 9/17/44 23/15/44 22/10/44
f 1/30/45 20/13/45 23/15/45
f 2/20/46 22/10/46 25/12/46
f 10/33/47 7/38/47 21/7/47
f 16/29/48 5/39/48 21/1/48
